<svg width="33" height="32" viewBox="0 0 33 32" fill="none" xmlns="http://www.w3.org/2000/svg">
<rect x="0.795538" y="0.645147" width="30.6693" height="30.6693" rx="15.3346" stroke="#D7D7D7" stroke-width="1.29029"/>
<g clip-path="url(#clip0_117_841)">
<path d="M13.0771 21.1778H10.9602V14.3433H13.0771V21.1778ZM13.2883 12.1658C13.2883 11.4815 12.7331 10.926 12.0492 10.926C11.3626 10.926 10.8088 11.4815 10.8088 12.1658C10.8088 12.8503 11.3626 13.4058 12.0492 13.4058C12.7331 13.4058 13.2883 12.8503 13.2883 12.1658ZM21.0001 17.4177C21.0001 15.583 20.6125 14.2223 18.4693 14.2223C17.4394 14.2223 16.7481 14.7374 16.4659 15.273H16.4639V14.3433H14.4075V21.1778H16.4639V17.7844C16.4639 16.8957 16.6901 16.0348 17.7917 16.0348C18.8782 16.0348 18.9134 17.051 18.9134 17.8409V21.1778H21.0001V17.4177ZM23.7218 22.0548V10.2002C23.7218 9.19966 22.9079 8.38574 21.9073 8.38574H10.0528C9.0522 8.38574 8.23828 9.19966 8.23828 10.2002V22.0548C8.23828 23.0554 9.0522 23.8693 10.0528 23.8693H21.9073C22.9079 23.8693 23.7218 23.0554 23.7218 22.0548ZM21.9073 9.59539C22.2408 9.59539 22.5122 9.86674 22.5122 10.2002V22.0548C22.5122 22.3883 22.2408 22.6596 21.9073 22.6596H10.0528C9.71928 22.6596 9.44793 22.3883 9.44793 22.0548V10.2002C9.44793 9.86674 9.71928 9.59539 10.0528 9.59539H21.9073Z" fill="white"/>
</g>
<defs>
<clipPath id="clip0_117_841">
<rect width="15.4835" height="15.4835" fill="white" transform="translate(8.24023 8.38672)"/>
</clipPath>
</defs>
</svg>
