<svg width="33" height="32" viewBox="0 0 33 32" fill="none" xmlns="http://www.w3.org/2000/svg">
<rect x="1.22034" y="0.645147" width="30.6693" height="30.6693" rx="15.3346" stroke="#D7D7D7" stroke-width="1.29029"/>
<path d="M21.8743 12.9428C17.514 12.9428 17.5083 17.2867 17.5083 17.309C17.5083 17.309 17.2096 21.6583 21.8743 21.6583C21.8743 21.6583 25.7645 21.8795 25.7645 18.6314H23.7669C23.7669 18.6314 23.8331 19.8542 21.9408 19.8542C21.9408 19.8542 19.9432 19.9872 19.9432 17.8787H25.8309C25.8309 17.8787 26.4784 12.9428 21.8743 12.9428ZM19.9209 16.3569C19.9209 16.3569 20.1644 14.6083 21.9187 14.6083C23.6784 14.6083 23.6507 16.3569 23.6507 16.3569H19.9209ZM14.93 15.2393C14.93 15.2393 16.662 15.112 16.662 13.0757C16.662 11.0451 15.2454 10.0488 13.447 10.0488H7.53125V21.4201H13.4465C13.4465 21.4201 17.06 21.531 17.06 18.0614C17.06 18.0614 17.2153 15.2393 14.93 15.2393ZM10.1378 12.0685H13.4467C13.4467 12.0685 14.2492 12.0685 14.2492 13.2525C14.2492 14.4366 13.7788 14.6083 13.2419 14.6083H10.1378V12.0685ZM13.281 19.4005H10.1378V16.3569H13.4467C13.4467 16.3569 14.6477 16.3459 14.6421 17.9228C14.6421 19.2512 13.7513 19.3895 13.281 19.4005ZM19.4284 10.7184V12.1185H24.121V10.7184H19.4284Z" fill="white"/>
</svg>
