<svg width="26" height="26" viewBox="0 0 26 26" fill="none" xmlns="http://www.w3.org/2000/svg">
<g clip-path="url(#clip0_51_49)">
<mask id="mask0_51_49" style="mask-type:luminance" maskUnits="userSpaceOnUse" x="0" y="1" width="25" height="24">
<path d="M0.808594 1H24.8086V25H0.808594V1Z" fill="white"/>
</mask>
<g mask="url(#mask0_51_49)">
<path d="M21.3086 25H4.30859C2.37859 25 0.808594 23.43 0.808594 21.5V6.5C0.808594 4.57 2.37859 3 4.30859 3H5.30859C5.58459 3 5.80859 3.224 5.80859 3.5C5.80859 3.776 5.58459 4 5.30859 4H4.30859C2.92959 4 1.80859 5.121 1.80859 6.5V21.5C1.80859 22.879 2.92959 24 4.30859 24H21.3086C22.6876 24 23.8086 22.879 23.8086 21.5V6.5C23.8086 5.121 22.6876 4 21.3086 4H20.3086C20.0326 4 19.8086 3.776 19.8086 3.5C19.8086 3.224 20.0326 3 20.3086 3H21.3086C23.2386 3 24.8086 4.57 24.8086 6.5V21.5C24.8086 23.43 23.2386 25 21.3086 25Z" fill="#1E1E1E"/>
<path d="M16.3086 4H9.30859C9.03259 4 8.80859 3.776 8.80859 3.5C8.80859 3.224 9.03259 3 9.30859 3H16.3086C16.5846 3 16.8086 3.224 16.8086 3.5C16.8086 3.776 16.5846 4 16.3086 4Z" fill="#1E1E1E"/>
<path d="M24.3086 9H1.30859C1.03259 9 0.808594 8.776 0.808594 8.5C0.808594 8.224 1.03259 8 1.30859 8H24.3086C24.5846 8 24.8086 8.224 24.8086 8.5C24.8086 8.776 24.5846 9 24.3086 9Z" fill="#1E1E1E"/>
<path d="M7.30859 6C7.03259 6 6.80859 5.776 6.80859 5.5V1.5C6.80859 1.224 7.03259 1 7.30859 1C7.58459 1 7.80859 1.224 7.80859 1.5V5.5C7.80859 5.776 7.58459 6 7.30859 6Z" fill="#1E1E1E"/>
<path d="M18.3086 6C18.0326 6 17.8086 5.776 17.8086 5.5V1.5C17.8086 1.224 18.0326 1 18.3086 1C18.5846 1 18.8086 1.224 18.8086 1.5V5.5C18.8086 5.776 18.5846 6 18.3086 6Z" fill="#1E1E1E"/>
<path d="M9.30859 21C7.92959 21 6.80859 19.879 6.80859 18.5C6.80859 18.224 7.03259 18 7.30859 18C7.58459 18 7.80859 18.224 7.80859 18.5C7.80859 19.327 8.48159 20 9.30859 20C10.1356 20 10.8086 19.327 10.8086 18.5C10.8086 17.673 10.1356 17 9.30859 17H8.30859C8.03259 17 7.80859 16.776 7.80859 16.5C7.80859 16.224 8.03259 16 8.30859 16H9.30859C10.1356 16 10.8086 15.327 10.8086 14.5C10.8086 13.673 10.1356 13 9.30859 13C8.48159 13 7.80859 13.673 7.80859 14.5C7.80859 14.776 7.58459 15 7.30859 15C7.03259 15 6.80859 14.776 6.80859 14.5C6.80859 13.121 7.92959 12 9.30859 12C10.6876 12 11.8086 13.121 11.8086 14.5C11.8086 15.316 11.4146 16.044 10.8066 16.5C11.4146 16.956 11.8086 17.684 11.8086 18.5C11.8086 19.879 10.6876 21 9.30859 21Z" fill="#1E1E1E"/>
<path d="M16.3088 21C16.0328 21 15.8088 20.776 15.8088 20.5V13.707L14.6628 14.853C14.4678 15.048 14.1508 15.048 13.9558 14.853C13.7608 14.658 13.7608 14.341 13.9558 14.146L15.9558 12.146C16.0998 12.002 16.3148 11.961 16.5008 12.038C16.6868 12.115 16.8088 12.298 16.8088 12.5V20.5C16.8088 20.776 16.5848 21 16.3088 21Z" fill="#1E1E1E"/>
<path d="M18.3086 21H14.3086C14.0326 21 13.8086 20.776 13.8086 20.5C13.8086 20.224 14.0326 20 14.3086 20H18.3086C18.5846 20 18.8086 20.224 18.8086 20.5C18.8086 20.776 18.5846 21 18.3086 21Z" fill="#1E1E1E"/>
</g>
</g>
<defs>
<clipPath id="clip0_51_49">
<rect width="25" height="25" fill="white" transform="translate(0.207031 0.5)"/>
</clipPath>
</defs>
</svg>
