<svg width="202" height="49" viewBox="0 0 202 49" fill="none" xmlns="http://www.w3.org/2000/svg">
<path d="M114.623 48.781H23.3501C11.0065 48.781 1 38.7745 1 26.4309C1 14.0873 11.0065 4.08076 23.3501 4.08076H114.309C126.601 4.08076 134.936 19.6593 147.225 19.3679C149.478 19.3145 151.46 19.1161 153.126 18.8672C157.049 18.2807 160.335 15.8797 162.854 12.8153C169.134 5.17442 179.767 2.207 188.413 7.01036C192.096 9.05671 195.369 11.266 196.71 13.2157C200.887 19.2928 202.096 25.2455 199.974 33.3114C199.874 33.6907 199.763 34.0662 199.627 34.434C199.123 35.7932 197.589 39.4158 194.572 42.5624C190.88 46.4121 186.02 48.781 181.939 48.781H179.002C167.129 48.781 159.095 34.1624 147.225 33.8809C135.105 33.5935 126.747 48.781 114.623 48.781Z" fill="white" stroke="white" stroke-width="0.388698"/>
<path d="M30.7697 31.7422H23.913V20.501H30.7697V21.9004H25.4367V25.4142H30.241V26.7669H25.4367V30.3273H30.7697V31.7422ZM33.5062 31.7422H31.8271L34.4858 27.9796L31.8426 24.1393H33.5373L35.4653 26.969L37.3466 24.1393H39.0102L36.3671 27.9796L38.9636 31.7422H37.2688L35.372 28.9591L33.5062 31.7422ZM40.2295 35.1472V24.1393H41.5511L41.6599 25.5075C42.173 24.4658 43.1991 23.9216 44.4119 23.9216C46.5886 23.9216 47.9413 25.5541 47.9413 27.8863C47.9413 30.2029 46.6663 31.9443 44.4119 31.9443C43.1991 31.9443 42.1885 31.4312 41.691 30.4984V35.1472H40.2295ZM41.7065 27.9485C41.7065 29.5033 42.6083 30.6227 44.1009 30.6227C45.5935 30.6227 46.4798 29.5033 46.4798 27.9485C46.4798 26.3782 45.5935 25.2587 44.1009 25.2587C42.6083 25.2587 41.7065 26.3626 41.7065 27.9485ZM51.0448 31.7422H49.5833V20.2989H51.0448V31.7422ZM52.6987 27.9329C52.6987 25.5852 54.3779 23.9371 56.6634 23.9371C58.9334 23.9371 60.6126 25.5852 60.6126 27.9329C60.6126 30.2807 58.9334 31.9288 56.6634 31.9288C54.3779 31.9288 52.6987 30.2807 52.6987 27.9329ZM54.1757 27.9329C54.1757 29.5188 55.1864 30.6227 56.6634 30.6227C58.1249 30.6227 59.1511 29.5188 59.1511 27.9329C59.1511 26.3471 58.1249 25.2432 56.6634 25.2432C55.1864 25.2432 54.1757 26.3471 54.1757 27.9329ZM66.5838 24.0771V25.4142H65.9308C64.5471 25.4142 63.6919 26.2538 63.6919 27.7153V31.7422H62.2304V24.1548H63.5986L63.6919 25.3053C64.0029 24.5124 64.7647 23.9838 65.8064 23.9838C66.0708 23.9838 66.2884 24.0149 66.5838 24.0771ZM70.9619 31.9288C68.723 31.9288 67.1838 30.3118 67.1838 27.9485C67.1838 25.5697 68.6919 23.9216 70.8997 23.9216C73.0609 23.9216 74.4757 25.4142 74.4757 27.6686V28.2128L68.5986 28.2284C68.7075 29.8298 69.5471 30.716 70.993 30.716C72.128 30.716 72.8743 30.2496 73.1231 29.3789H74.4913C74.1181 31.0114 72.8432 31.9288 70.9619 31.9288ZM70.8997 25.1499C69.6248 25.1499 68.8163 25.9117 68.6297 27.2488H73.0142C73.0142 25.9895 72.1902 25.1499 70.8997 25.1499ZM82.1009 31.7422H80.6083V20.501H82.1009L85.9723 29.9542L89.8438 20.501H91.3675V31.7422H89.8749V27.2955C89.8749 25.1965 89.8904 24.4347 89.9682 23.6417L86.6875 31.7422H85.2571L81.9921 23.6728C82.0698 24.217 82.1009 25.3675 82.1009 26.9379V31.7422ZM93.2387 27.9329C93.2387 25.5852 94.9179 23.9371 97.2034 23.9371C99.4734 23.9371 101.153 25.5852 101.153 27.9329C101.153 30.2807 99.4734 31.9288 97.2034 31.9288C94.9179 31.9288 93.2387 30.2807 93.2387 27.9329ZM94.7157 27.9329C94.7157 29.5188 95.7264 30.6227 97.2034 30.6227C98.6649 30.6227 99.6911 29.5188 99.6911 27.9329C99.6911 26.3471 98.6649 25.2432 97.2034 25.2432C95.7264 25.2432 94.7157 26.3471 94.7157 27.9329ZM107.124 24.0771V25.4142H106.471C105.087 25.4142 104.232 26.2538 104.232 27.7153V31.7422H102.77V24.1548H104.139L104.232 25.3053C104.543 24.5124 105.305 23.9838 106.346 23.9838C106.611 23.9838 106.828 24.0149 107.124 24.0771ZM111.502 31.9288C109.263 31.9288 107.724 30.3118 107.724 27.9485C107.724 25.5697 109.232 23.9216 111.44 23.9216C113.601 23.9216 115.016 25.4142 115.016 27.6686V28.2128L109.139 28.2284C109.247 29.8298 110.087 30.716 111.533 30.716C112.668 30.716 113.414 30.2496 113.663 29.3789H115.031C114.658 31.0114 113.383 31.9288 111.502 31.9288ZM111.44 25.1499C110.165 25.1499 109.356 25.9117 109.17 27.2488H113.554C113.554 25.9895 112.73 25.1499 111.44 25.1499Z" fill="black"/>
<path d="M198.651 26.8197C198.651 37.5533 189.95 46.2546 179.216 46.2546C168.483 46.2546 159.781 37.5533 159.781 26.8197C159.781 16.0861 168.483 7.38477 179.216 7.38477C189.95 7.38477 198.651 16.0861 198.651 26.8197Z" fill="#154242"/>
<path d="M174.541 31.0949C174.235 31.4389 174.266 31.9656 174.611 32.2714C174.955 32.5771 175.481 32.546 175.787 32.202L174.541 31.0949ZM184.866 21.6174C184.839 21.158 184.445 20.8075 183.985 20.8346L176.498 21.2761C176.039 21.3032 175.688 21.6976 175.715 22.1571C175.742 22.6165 176.137 22.967 176.596 22.9399L183.251 22.5474L183.644 29.2025C183.671 29.662 184.065 30.0125 184.525 29.9854C184.984 29.9583 185.335 29.5639 185.308 29.1044L184.866 21.6174ZM175.787 32.202L184.657 22.22L183.411 21.1129L174.541 31.0949L175.787 32.202Z" fill="white"/>
</svg>
