<svg width="32" height="32" viewBox="0 0 32 32" fill="none" xmlns="http://www.w3.org/2000/svg">
<rect x="0.645147" y="0.645147" width="30.6693" height="30.6693" rx="15.3346" stroke="#D7D7D7" stroke-width="1.29029"/>
<g clip-path="url(#clip0_117_832)">
<path d="M20.9219 13.5967H21.6844V22.0103H20.9219V13.5967Z" fill="white"/>
<path d="M10.248 13.5967H11.0104V22.0103H10.248V13.5967Z" fill="white"/>
<path d="M22.5572 22.3951H9.36693C8.37738 22.3951 7.5752 21.5929 7.5752 20.6034V11.2253C7.5752 10.2358 8.37738 9.43359 9.36693 9.43359H22.5572C23.5468 9.43359 24.349 10.2358 24.349 11.2253V20.6034C24.349 21.5929 23.5468 22.3951 22.5572 22.3951ZM9.36693 10.196C8.79844 10.196 8.3376 10.6568 8.3376 11.2253V20.6034C8.3376 21.1718 8.79844 21.6327 9.36693 21.6327H22.5572C23.1257 21.6327 23.5866 21.1718 23.5866 20.6034V11.2253C23.5866 10.6568 23.1257 10.196 22.5572 10.196H9.36693Z" fill="white"/>
<path d="M15.9643 18.8583L7.70605 11.5103L8.21116 10.9385L15.9643 17.8386L23.7174 10.9385L24.2225 11.5103L15.9643 18.8583Z" fill="white"/>
<path d="M15.9629 15.4277L9.90137 10.1002L10.4017 9.52832L15.9629 14.4128L21.5191 9.52832L22.0242 10.1002L15.9629 15.4277Z" fill="white"/>
</g>
<defs>
<clipPath id="clip0_117_832">
<rect width="16.7738" height="16.7738" fill="white" transform="translate(7.5752 7.52637)"/>
</clipPath>
</defs>
</svg>
