<svg width="33" height="32" viewBox="0 0 33 32" fill="none" xmlns="http://www.w3.org/2000/svg">
<rect x="0.944952" y="0.645147" width="30.6693" height="30.6693" rx="15.3346" stroke="#D7D7D7" stroke-width="1.29029"/>
<path d="M16.3435 10.028C18.408 10.028 18.6525 10.0358 19.468 10.0729C19.9584 10.0789 20.4441 10.169 20.904 10.3392C21.2375 10.4678 21.5404 10.6648 21.7932 10.9176C22.046 11.1704 22.243 11.4733 22.3716 11.8068C22.5418 12.2667 22.6318 12.7524 22.6378 13.2428C22.6747 14.0583 22.6828 14.3028 22.6828 16.3673C22.6828 18.4318 22.675 18.6763 22.6378 19.4918C22.6318 19.9822 22.5418 20.4679 22.3716 20.9278C22.243 21.2613 22.046 21.5642 21.7932 21.817C21.5404 22.0698 21.2375 22.2668 20.904 22.3954C20.4441 22.5656 19.9584 22.6556 19.468 22.6616C18.6528 22.6985 18.4083 22.7066 16.3435 22.7066C14.2786 22.7066 14.0341 22.6988 13.219 22.6616C12.7286 22.6556 12.2429 22.5656 11.783 22.3954C11.4495 22.2668 11.1466 22.0698 10.8938 21.817C10.641 21.5642 10.444 21.2613 10.3153 20.9278C10.1452 20.4679 10.0551 19.9822 10.0491 19.4918C10.0123 18.6763 10.0042 18.4318 10.0042 16.3673C10.0042 14.3028 10.012 14.0583 10.0491 13.2428C10.0551 12.7524 10.1452 12.2667 10.3153 11.8068C10.444 11.4733 10.641 11.1704 10.8938 10.9176C11.1466 10.6648 11.4495 10.4678 11.783 10.3392C12.2429 10.169 12.7286 10.0789 13.219 10.0729C14.0345 10.0361 14.279 10.028 16.3435 10.028ZM16.3435 8.63477C14.2448 8.63477 13.9804 8.6436 13.1556 8.68116C12.5139 8.69392 11.8789 8.81543 11.2778 9.04052C10.7622 9.23481 10.2951 9.53927 9.90923 9.93266C9.51548 10.3187 9.21075 10.786 9.01635 11.302C8.79126 11.9031 8.66975 12.5381 8.65698 13.1798C8.62016 14.0038 8.61133 14.2682 8.61133 16.3669C8.61133 18.4657 8.62016 18.73 8.65772 19.5548C8.67049 20.1965 8.792 20.8315 9.01708 21.4326C9.21127 21.9485 9.51574 22.4158 9.90923 22.8019C10.2953 23.1954 10.7626 23.4999 11.2786 23.6941C11.8797 23.9192 12.5146 24.0407 13.1564 24.0534C13.9811 24.0902 14.2444 24.0998 16.3442 24.0998C18.4441 24.0998 18.7073 24.091 19.5321 24.0534C20.1738 24.0407 20.8088 23.9192 21.4099 23.6941C21.9234 23.495 22.3897 23.191 22.7789 22.8015C23.1682 22.412 23.4719 21.9455 23.6706 21.4319C23.8957 20.8307 24.0172 20.1958 24.03 19.554C24.0668 18.73 24.0756 18.4657 24.0756 16.3669C24.0756 14.2682 24.0668 14.0038 24.0293 13.1791C24.0165 12.5373 23.895 11.9024 23.6699 11.3013C23.4757 10.7853 23.1712 10.318 22.7777 9.93193C22.3917 9.53844 21.9243 9.23397 21.4084 9.03978C20.8073 8.8147 20.1724 8.69319 19.5306 8.68042C18.7066 8.6436 18.4422 8.63477 16.3435 8.63477Z" fill="white"/>
<path d="M16.3447 12.3975C15.5594 12.3975 14.7917 12.6303 14.1387 13.0666C13.4857 13.5029 12.9768 14.1231 12.6763 14.8486C12.3757 15.5741 12.2971 16.3725 12.4503 17.1427C12.6035 17.913 12.9817 18.6205 13.537 19.1758C14.0923 19.7311 14.7998 20.1093 15.57 20.2625C16.3403 20.4157 17.1386 20.337 17.8642 20.0365C18.5897 19.736 19.2098 19.2271 19.6461 18.5741C20.0824 17.9211 20.3153 17.1534 20.3153 16.3681C20.3153 15.315 19.897 14.3051 19.1523 13.5604C18.4077 12.8158 17.3978 12.3975 16.3447 12.3975ZM16.3447 18.9455C15.8349 18.9455 15.3366 18.7943 14.9128 18.5111C14.4889 18.2279 14.1586 17.8254 13.9635 17.3544C13.7684 16.8835 13.7174 16.3652 13.8168 15.8653C13.9163 15.3653 14.1617 14.9061 14.5222 14.5456C14.8826 14.1852 15.3419 13.9397 15.8418 13.8402C16.3418 13.7408 16.86 13.7918 17.331 13.9869C17.802 14.182 18.2045 14.5123 18.4877 14.9362C18.7709 15.36 18.9221 15.8583 18.9221 16.3681C18.9221 17.0517 18.6505 17.7072 18.1672 18.1906C17.6838 18.6739 17.0282 18.9455 16.3447 18.9455Z" fill="white"/>
<path d="M20.4718 13.1682C20.9842 13.1682 21.3997 12.7528 21.3997 12.2404C21.3997 11.7279 20.9842 11.3125 20.4718 11.3125C19.9594 11.3125 19.5439 11.7279 19.5439 12.2404C19.5439 12.7528 19.9594 13.1682 20.4718 13.1682Z" fill="white"/>
</svg>
