<svg width="22" height="25" viewBox="0 0 22 25" fill="none" xmlns="http://www.w3.org/2000/svg">
<path d="M11.4229 2.72632C14.2229 2.72632 14.5545 2.73681 15.6606 2.78725C16.3257 2.79539 16.9844 2.91751 17.6082 3.1483C18.0606 3.32275 18.4714 3.59 18.8142 3.93282C19.157 4.27565 19.4243 4.68647 19.5987 5.13882C19.8295 5.76261 19.9516 6.42135 19.9598 7.08641C20.0097 8.19253 20.0207 8.52412 20.0207 11.3241C20.0207 14.1242 20.0102 14.4558 19.9598 15.5619C19.9516 16.2269 19.8295 16.8857 19.5987 17.5095C19.4243 17.9618 19.157 18.3726 18.8142 18.7155C18.4714 19.0583 18.0606 19.3255 17.6082 19.5C16.9844 19.7308 16.3257 19.8529 15.6606 19.861C14.555 19.911 14.2234 19.922 11.4229 19.922C8.62236 19.922 8.29078 19.9115 7.18515 19.861C6.52009 19.8529 5.86135 19.7308 5.23757 19.5C4.78521 19.3255 4.3744 19.0583 4.03157 18.7155C3.68874 18.3726 3.4215 17.9618 3.24704 17.5095C3.01625 16.8857 2.89413 16.2269 2.88599 15.5619C2.83605 14.4558 2.82507 14.1242 2.82507 11.3241C2.82507 8.52412 2.83555 8.19253 2.88599 7.08641C2.89413 6.42135 3.01625 5.76261 3.24704 5.13882C3.4215 4.68647 3.68874 4.27565 4.03157 3.93282C4.3744 3.59 4.78521 3.32275 5.23757 3.1483C5.86135 2.91751 6.52009 2.79539 7.18515 2.78725C8.29128 2.73731 8.62286 2.72632 11.4229 2.72632ZM11.4229 0.83667C8.57642 0.83667 8.21787 0.848655 7.09926 0.899592C6.22886 0.916904 5.36771 1.08171 4.55242 1.38699C3.85304 1.65049 3.21957 2.06343 2.69623 2.59698C2.16219 3.12052 1.7489 3.75434 1.48523 4.45418C1.17995 5.26946 1.01515 6.13062 0.997836 7.00101C0.947898 8.11862 0.935913 8.47718 0.935913 11.3236C0.935913 14.1701 0.947898 14.5287 0.998835 15.6473C1.01615 16.5177 1.18095 17.3788 1.48623 18.1941C1.74961 18.8938 2.16255 19.5277 2.69623 20.0513C3.21986 20.585 3.85368 20.9979 4.55342 21.2613C5.36871 21.5666 6.22986 21.7314 7.10026 21.7487C8.21887 21.7986 8.57592 21.8116 11.4239 21.8116C14.2718 21.8116 14.6289 21.7996 15.7475 21.7487C16.6179 21.7314 17.4791 21.5666 18.2943 21.2613C18.9908 20.9913 19.6232 20.579 20.1512 20.0507C20.6791 19.5224 21.091 18.8897 21.3605 18.1931C21.6658 17.3778 21.8306 16.5167 21.8479 15.6463C21.8979 14.5287 21.9099 14.1701 21.9099 11.3236C21.9099 8.47718 21.8979 8.11862 21.8469 7.00001C21.8296 6.12962 21.6648 5.26846 21.3595 4.45318C21.0962 3.75344 20.6832 3.11962 20.1495 2.59598C19.6259 2.06231 18.9921 1.64936 18.2924 1.38599C17.4771 1.08071 16.6159 0.915905 15.7455 0.898593C14.6279 0.848655 14.2694 0.83667 11.4229 0.83667Z" fill="#1A373E"/>
<g filter="url(#filter0_d_116_618)">
<path d="M11.425 5.94043C10.3599 5.94043 9.31868 6.25627 8.43307 6.84802C7.54746 7.43976 6.85721 8.28083 6.44961 9.26487C6.04201 10.2489 5.93536 11.3317 6.14315 12.3764C6.35095 13.421 6.86385 14.3806 7.617 15.1337C8.37015 15.8869 9.32972 16.3998 10.3744 16.6076C11.419 16.8154 12.5018 16.7087 13.4859 16.3011C14.4699 15.8935 15.311 15.2033 15.9027 14.3177C16.4945 13.432 16.8103 12.3909 16.8103 11.3257C16.8103 9.89747 16.2429 8.52769 15.233 7.51775C14.223 6.50781 12.8533 5.94043 11.425 5.94043ZM11.425 14.8214C10.7336 14.8214 10.0578 14.6164 9.4829 14.2323C8.90804 13.8482 8.46 13.3022 8.19542 12.6635C7.93084 12.0247 7.86162 11.3219 7.9965 10.6438C8.13138 9.96568 8.46431 9.34281 8.95318 8.85394C9.44206 8.36506 10.0649 8.03213 10.743 7.89725C11.4211 7.76237 12.124 7.8316 12.7627 8.09617C13.4015 8.36075 13.9474 8.8088 14.3315 9.38366C14.7156 9.95851 14.9206 10.6344 14.9206 11.3257C14.9206 12.2528 14.5524 13.142 13.8968 13.7975C13.2412 14.4531 12.3521 14.8214 11.425 14.8214Z" fill="#1A373E"/>
</g>
<path d="M17.0224 6.98465C17.7174 6.98465 18.2808 6.42123 18.2808 5.72621C18.2808 5.03119 17.7174 4.46777 17.0224 4.46777C16.3273 4.46777 15.7639 5.03119 15.7639 5.72621C15.7639 6.42123 16.3273 6.98465 17.0224 6.98465Z" fill="#1A373E"/>
<defs>
<filter id="filter0_d_116_618" x="2.03967" y="5.94043" width="18.7706" height="18.7705" filterUnits="userSpaceOnUse" color-interpolation-filters="sRGB">
<feFlood flood-opacity="0" result="BackgroundImageFix"/>
<feColorMatrix in="SourceAlpha" type="matrix" values="0 0 0 0 0 0 0 0 0 0 0 0 0 0 0 0 0 0 127 0" result="hardAlpha"/>
<feOffset dy="4"/>
<feGaussianBlur stdDeviation="2"/>
<feComposite in2="hardAlpha" operator="out"/>
<feColorMatrix type="matrix" values="0 0 0 0 0 0 0 0 0 0 0 0 0 0 0 0 0 0 0.25 0"/>
<feBlend mode="normal" in2="BackgroundImageFix" result="effect1_dropShadow_116_618"/>
<feBlend mode="normal" in="SourceGraphic" in2="effect1_dropShadow_116_618" result="shape"/>
</filter>
</defs>
</svg>
