<svg width="24" height="26" viewBox="0 0 24 26" fill="none" xmlns="http://www.w3.org/2000/svg">
<path d="M21.757 25.5001H2.1485C0.889687 25.5001 0.029643 24.6627 0.00855611 23.4163C-0.00311701 22.6681 -0.00575286 22.0392 0.0194761 21.398C0.0586375 20.4219 0.552673 19.6267 1.41159 19.1575C2.62785 18.4932 3.86633 17.8264 5.06414 17.1817C6.06426 16.6436 7.09827 16.0871 8.11232 15.5354C8.53105 15.3057 8.87484 15.4978 9.00399 15.5701C9.01529 15.5761 9.02621 15.5825 9.03751 15.5882C10.7994 16.5107 12.5466 16.586 14.3796 15.8186L14.4399 15.7964C15.1851 15.2029 15.9088 15.5998 16.2601 15.793C18.28 16.9065 20.3499 18.0165 22.2857 19.0502C23.36 19.6229 23.8951 20.5221 23.8759 21.7226C23.8691 22.0893 23.8714 22.4625 23.8736 22.8236C23.8751 23.0104 23.8763 23.1975 23.8763 23.3854C23.8691 24.6318 22.9978 25.5001 21.757 25.5001ZM8.5269 16.6267C7.55389 17.1554 6.56771 17.6863 5.61277 18.2003C4.41609 18.8442 3.17912 19.5103 1.96587 20.1727C1.45715 20.4506 1.19846 20.8663 1.17511 21.4439C1.15101 22.0584 1.15365 22.6692 1.16532 23.3971C1.17549 24.0071 1.52455 24.3434 2.1485 24.3434H21.757C22.3561 24.3434 22.7157 23.9837 22.7191 23.382C22.7191 23.2001 22.718 23.0153 22.7169 22.8307C22.7146 22.4629 22.7124 22.0822 22.7195 21.7022C22.7316 20.9416 22.4296 20.4381 21.7408 20.0706C19.8012 19.0347 17.7276 17.9224 15.7025 16.8063C15.3026 16.5864 15.251 16.624 15.1478 16.7114C15.0243 16.8191 14.8929 16.8639 14.8217 16.888L14.8104 16.8922C12.684 17.7774 10.5701 17.6882 8.5269 16.6267Z" fill="black"/>
<path d="M11.7718 15.0228L11.7583 15.0221C9.76783 14.9543 8.05941 13.9741 6.81717 12.1878C5.85621 10.8024 5.381 9.07558 5.47891 7.32424C5.57681 5.57704 6.23841 3.91758 7.34171 2.65199C8.55496 1.26327 10.1858 0.5 11.9368 0.5H11.9594C13.7194 0.506401 15.3536 1.28285 16.5608 2.68588C17.8211 4.15255 18.4763 6.06167 18.4055 8.06228C18.3348 10.0685 17.5429 11.9069 16.1764 13.2387C14.9691 14.417 13.5326 15.0002 11.785 15.0225L11.7718 15.0228ZM11.9371 1.65677C10.5251 1.65677 9.20338 2.27958 8.21342 3.41225C6.28473 5.62487 6.09269 9.11437 7.76759 11.5281C8.80461 13.0196 10.1561 13.8062 11.7843 13.8657C13.234 13.8446 14.3734 13.3818 15.369 12.4103C17.7364 10.1032 17.8806 5.99539 15.6842 3.44011C14.6991 2.2954 13.3748 1.66204 11.9552 1.65639C11.9492 1.65677 11.9432 1.65677 11.9371 1.65677Z" fill="black"/>
</svg>
